<?xml version="1.0" standalone="no"?>
<!DOCTYPE svg PUBLIC "-//W3C//DTD SVG 20010904//EN"
 "http://www.w3.org/TR/2001/REC-SVG-20010904/DTD/svg10.dtd">
<svg version="1.0" xmlns="http://www.w3.org/2000/svg"
 width="700.000000pt" height="700.000000pt" viewBox="0 0 700.000000 700.000000"
 preserveAspectRatio="xMidYMid meet">
<metadata>
Created by potrace 1.14, written by Peter Selinger 2001-2017
</metadata>
<g transform="translate(0.000000,700.000000) scale(0.100000,-0.100000)"
fill="#000000" stroke="none">
<path d="M361 6984 c-169 -45 -301 -180 -346 -351 -13 -50 -15 -339 -15 -2258
0 -2424 -4 -2253 61 -2376 38 -70 126 -157 197 -193 114 -58 73 -56 1228 -56
l1062 0 -211 -475 -211 -475 -61 0 c-252 -1 -409 -107 -461 -310 -46 -180 42
-362 214 -448 l76 -37 1606 0 1606 0 76 37 c91 45 147 103 191 196 29 60 32
76 31 157 0 67 -6 103 -21 142 -45 112 -136 199 -247 237 -27 9 -97 19 -156
23 l-107 6 -210 473 -211 474 1062 0 c1168 0 1117 -3 1237 61 70 38 157 126
193 197 60 118 56 -34 56 2367 0 2421 4 2253 -61 2375 -52 98 -151 183 -264
226 -49 19 -127 19 -3155 21 -2688 2 -3112 0 -3159 -13z m6245 -330 c15 -11
37 -33 48 -48 l21 -27 3 -1780 2 -1779 -3180 0 -3180 0 0 1764 c0 1226 3 1773
11 1793 14 37 47 73 84 89 25 11 556 13 3097 11 l3067 -2 27 -21z m74 -4213
c0 -252 -1 -259 -23 -292 -12 -18 -38 -44 -56 -56 l-34 -23 -3067 0 -3067 0
-34 23 c-18 12 -44 38 -56 56 -22 33 -23 40 -23 292 l0 259 3180 0 3180 0 0
-259z m-2373 -1149 c111 -251 205 -465 209 -474 6 -17 -47 -18 -1016 -18 -969
0 -1022 1 -1016 18 4 9 98 223 209 474 l202 457 605 0 605 0 202 -457z m736
-824 c52 -27 62 -83 22 -123 l-24 -25 -1541 0 -1541 0 -24 25 c-40 39 -31 94
20 123 29 17 3057 17 3088 0z"/>
<path d="M3408 6359 c-249 -26 -493 -192 -612 -418 -42 -80 -81 -211 -91 -303
l-7 -68 -409 0 c-323 0 -417 -3 -442 -14 -44 -18 -85 -68 -93 -114 -6 -27 34
-288 150 -987 87 -522 162 -967 167 -988 13 -50 63 -104 107 -117 26 -8 446
-10 1344 -8 l1307 3 28 21 c66 49 58 17 233 1061 116 697 161 991 156 1016 -8
45 -50 95 -93 113 -25 11 -119 14 -442 14 l-410 0 -6 58 c-48 459 -433 777
-887 731z m233 -339 c172 -53 307 -211 327 -384 l8 -66 -476 0 -476 0 8 66
c15 129 111 273 226 341 108 64 262 81 383 43z m495 -1467 c-23 -224 -157
-415 -361 -513 -101 -48 -167 -63 -275 -63 -175 0 -320 60 -448 185 -104 102
-173 246 -188 391 l-7 67 643 0 643 0 -7 -67z"/>
<path d="M3420 1408 c-76 -52 -98 -125 -61 -202 59 -121 223 -121 282 0 50
105 -24 224 -141 224 -32 0 -57 -7 -80 -22z"/>
</g>
</svg>
