<svg width="40.000000" height="40.000000" viewBox="0 0 40 40" fill="none" xmlns="http://www.w3.org/2000/svg" xmlns:xlink="http://www.w3.org/1999/xlink">
	<desc>
			Created with Pixso.
	</desc>
	<defs/>
	<path id="Vector" d="M20 37.93C18.18 37.93 16.38 37.39 14.96 36.35L7.8 31C5.9 29.58 4.41 26.61 4.41 24.26L4.41 11.86C4.41 9.29 6.3 6.56 8.71 5.66L17.03 2.54C18.68 1.93 21.28 1.93 22.93 2.54L31.25 5.66C33.66 6.56 35.55 9.29 35.55 11.86L35.55 24.25C35.55 26.61 34.06 29.56 32.16 30.98L25 36.33C23.61 37.39 21.81 37.93 20 37.93ZM17.91 4.89L9.6 8.01C8.18 8.54 6.93 10.35 6.93 11.88L6.93 24.26C6.93 25.85 8.05 28.06 9.3 29L16.46 34.35C18.38 35.78 21.61 35.78 23.55 34.35L30.71 29C31.98 28.04 33.08 25.85 33.08 24.26L33.08 11.86C33.08 10.35 31.83 8.54 30.41 8L22.1 4.88C20.96 4.48 19.03 4.48 17.91 4.89Z" fill="#FAFAFA" fill-opacity="1.000000" fill-rule="nonzero"/>
	<path id="Vector" d="M14.96 36.35L7.8 31C5.9 29.58 4.41 26.61 4.41 24.26L4.41 11.86C4.41 9.29 6.3 6.56 8.71 5.66L17.03 2.54C18.68 1.93 21.28 1.93 22.93 2.54L31.25 5.66C33.66 6.56 35.55 9.29 35.55 11.86L35.55 24.25C35.55 26.61 34.06 29.56 32.16 30.98L25 36.33C23.61 37.39 21.81 37.93 20 37.93C18.18 37.93 16.38 37.39 14.96 36.35ZM9.6 8.01C8.18 8.54 6.93 10.35 6.93 11.88L6.93 24.26C6.93 25.85 8.05 28.06 9.3 29L16.46 34.35C18.38 35.78 21.61 35.78 23.55 34.35L30.71 29C31.98 28.04 33.08 25.85 33.08 24.26L33.08 11.86C33.08 10.35 31.83 8.54 30.41 8L22.1 4.88C20.96 4.48 19.03 4.48 17.91 4.89L9.6 8.01Z" stroke="#FAFAFA" stroke-opacity="1.000000" stroke-width="1.000000"/>
	<path id="Vector" d="M17.76 23.71C17.45 23.71 17.13 23.6 16.88 23.35L14.2 20.66C13.71 20.18 13.71 19.38 14.2 18.89C14.68 18.41 15.48 18.41 15.96 18.89L17.76 20.7L24.05 14.41C24.53 13.93 25.33 13.93 25.81 14.41C26.3 14.89 26.3 15.7 25.81 16.18L18.65 23.35C18.4 23.6 18.08 23.71 17.76 23.71Z" fill="#FAFAFA" fill-opacity="1.000000" fill-rule="nonzero"/>
	<path id="Vector" d="M16.88 23.35L14.2 20.66C13.71 20.18 13.71 19.38 14.2 18.89C14.68 18.41 15.48 18.41 15.96 18.89L17.76 20.7L24.05 14.41C24.53 13.93 25.33 13.93 25.81 14.41C26.3 14.89 26.3 15.7 25.81 16.18L18.65 23.35C18.4 23.6 18.08 23.71 17.76 23.71C17.45 23.71 17.13 23.6 16.88 23.35Z" stroke="#FAFAFA" stroke-opacity="1.000000" stroke-width="1.000000"/>
	<g opacity="0.000000">
		<path id="Vector" d="M40 0L40 40L0 40L0 0L40 0Z" stroke="#FAFAFA" stroke-opacity="1.000000" stroke-width="1.000000"/>
	</g>
</svg>
