<svg width="40.000000" height="40.000000" viewBox="0 0 40 40" fill="none" xmlns="http://www.w3.org/2000/svg" xmlns:xlink="http://www.w3.org/1999/xlink">
	<desc>
			Created with Pixso.
	</desc>
	<defs>
		<clipPath id="clip12_6160">
			<rect id="icon-delivery" width="40.000000" height="40.000000" transform="translate(-0.500000 0.000000)" fill="white" fill-opacity="0"/>
		</clipPath>
	</defs>
	<rect id="icon-delivery" width="40.000000" height="40.000000" transform="translate(-0.500000 0.000000)" fill="#FFFFFF" fill-opacity="0"/>
	<g clip-path="url(#clip12_6160)">
		<path id="Vector" d="M11.16 31.66C9.32 31.66 7.83 30.17 7.83 28.33C7.83 26.49 9.32 25 11.16 25C13 25 14.5 26.49 14.5 28.33C14.5 30.17 13 31.66 11.16 31.66Z" stroke="#FAFAFA" stroke-opacity="1.000000" stroke-width="2.000000" stroke-linejoin="round"/>
		<path id="Vector" d="M27.83 31.66C25.99 31.66 24.5 30.17 24.5 28.33C24.5 26.49 25.99 25 27.83 25C29.67 25 31.16 26.49 31.16 28.33C31.16 30.17 29.67 31.66 27.83 31.66Z" stroke="#FAFAFA" stroke-opacity="1.000000" stroke-width="2.000000" stroke-linejoin="round"/>
		<path id="Vector" d="M7.83 28.33L6.49 28.33C5.39 28.33 4.49 27.43 4.49 26.33L4.49 21.66M2.83 8.33L19.16 8.33C20.27 8.33 21.16 9.22 21.16 10.33L21.16 28.33M14.5 28.33L24.5 28.33M31.16 28.33L32.5 28.33C33.6 28.33 34.5 27.43 34.5 26.33L34.5 18.33L30.08 10.97C29.72 10.36 29.07 10 28.36 10L21.16 10M34.5 18.33L21.16 18.33" stroke="#FAFAFA" stroke-opacity="1.000000" stroke-width="2.000000" stroke-linejoin="round"/>
		<path id="Vector" d="M7.5 28L6.16 28C5.06 28 4.16 27.1 4.16 26L4.16 21.33M2.5 8L18.83 8C19.93 8 20.83 8.89 20.83 10L20.83 28M14.5 28L24.16 28M31.5 28L32.16 28C33.27 28 34.16 27.1 34.16 26L34.16 18L29.74 10.63C29.38 10.03 28.73 9.66 28.03 9.66L20.83 9.66M34.16 18L20.83 18" stroke="#FAFAFA" stroke-opacity="1.000000" stroke-width="2.000000" stroke-linejoin="round"/>
		<path id="Vector" d="M4.5 11.81L11.16 11.81" stroke="#FAFAFA" stroke-opacity="1.000000" stroke-width="2.000000" stroke-linejoin="round" stroke-linecap="round"/>
		<path id="Vector" d="M1.31 15.45L7.98 15.45" stroke="#FAFAFA" stroke-opacity="1.000000" stroke-width="2.000000" stroke-linejoin="round" stroke-linecap="round"/>
		<path id="Vector" d="M4.5 19.09L11.16 19.09" stroke="#FAFAFA" stroke-opacity="1.000000" stroke-width="2.000000" stroke-linejoin="round" stroke-linecap="round"/>
	</g>
</svg>
